<mxfile host="www.draw.io" modified="2020-01-27T23:58:17.958Z" agent="Mozilla/5.0 (Windows NT 10.0; Win64; x64) AppleWebKit/537.36 (KHTML, like Gecko) Chrome/79.0.3945.130 Safari/537.36" etag="5MjEti0g6h9aiPusoA6Y" version="12.5.8" type="github">
  <diagram id="nW1qPm5TUBtfGXzfNcQn" name="Page-1">
    <mxGraphModel dx="1264" dy="533" grid="1" gridSize="10" guides="1" tooltips="1" connect="1" arrows="1" fold="1" page="1" pageScale="1" pageWidth="850" pageHeight="1100" math="0" shadow="0">
      <root>
        <mxCell id="0"/>
        <mxCell id="1" parent="0"/>
        <mxCell id="RoHcZFiQe7JwGtEL-E4e-1" value="click on add member" style="rounded=1;whiteSpace=wrap;html=1;arcSize=40;fontColor=#000000;fillColor=#ffffc0;strokeColor=#ff0000;" vertex="1" parent="1">
          <mxGeometry x="250" y="40" width="120" height="40" as="geometry"/>
        </mxCell>
        <mxCell id="RoHcZFiQe7JwGtEL-E4e-2" value="" style="edgeStyle=orthogonalEdgeStyle;html=1;verticalAlign=bottom;endArrow=open;endSize=8;strokeColor=#ff0000;" edge="1" source="RoHcZFiQe7JwGtEL-E4e-1" parent="1">
          <mxGeometry relative="1" as="geometry">
            <mxPoint x="310" y="140" as="targetPoint"/>
          </mxGeometry>
        </mxCell>
        <mxCell id="RoHcZFiQe7JwGtEL-E4e-3" value="" style="ellipse;html=1;shape=startState;fillColor=#000000;strokeColor=#ff0000;" vertex="1" parent="1">
          <mxGeometry x="295" y="140" width="30" height="30" as="geometry"/>
        </mxCell>
        <mxCell id="RoHcZFiQe7JwGtEL-E4e-4" value="" style="edgeStyle=orthogonalEdgeStyle;html=1;verticalAlign=bottom;endArrow=open;endSize=8;strokeColor=#ff0000;" edge="1" source="RoHcZFiQe7JwGtEL-E4e-3" parent="1">
          <mxGeometry relative="1" as="geometry">
            <mxPoint x="310" y="230" as="targetPoint"/>
          </mxGeometry>
        </mxCell>
        <mxCell id="RoHcZFiQe7JwGtEL-E4e-5" value="show all memeber" style="rounded=1;whiteSpace=wrap;html=1;arcSize=40;fontColor=#000000;fillColor=#ffffc0;strokeColor=#ff0000;" vertex="1" parent="1">
          <mxGeometry x="250" y="230" width="120" height="40" as="geometry"/>
        </mxCell>
        <mxCell id="RoHcZFiQe7JwGtEL-E4e-6" value="" style="edgeStyle=orthogonalEdgeStyle;html=1;verticalAlign=bottom;endArrow=open;endSize=8;strokeColor=#ff0000;" edge="1" source="RoHcZFiQe7JwGtEL-E4e-5" parent="1">
          <mxGeometry relative="1" as="geometry">
            <mxPoint x="310" y="330" as="targetPoint"/>
          </mxGeometry>
        </mxCell>
        <mxCell id="RoHcZFiQe7JwGtEL-E4e-7" value="get new member information" style="rounded=1;whiteSpace=wrap;html=1;arcSize=40;fontColor=#000000;fillColor=#ffffc0;strokeColor=#ff0000;" vertex="1" parent="1">
          <mxGeometry x="250" y="330" width="120" height="40" as="geometry"/>
        </mxCell>
        <mxCell id="RoHcZFiQe7JwGtEL-E4e-8" value="" style="edgeStyle=orthogonalEdgeStyle;html=1;verticalAlign=bottom;endArrow=open;endSize=8;strokeColor=#ff0000;" edge="1" source="RoHcZFiQe7JwGtEL-E4e-7" parent="1">
          <mxGeometry relative="1" as="geometry">
            <mxPoint x="310" y="430" as="targetPoint"/>
          </mxGeometry>
        </mxCell>
        <mxCell id="RoHcZFiQe7JwGtEL-E4e-9" value="already existing" style="rhombus;whiteSpace=wrap;html=1;fillColor=#ffffc0;strokeColor=#ff0000;" vertex="1" parent="1">
          <mxGeometry x="270" y="430" width="80" height="40" as="geometry"/>
        </mxCell>
        <mxCell id="RoHcZFiQe7JwGtEL-E4e-10" value="yes" style="edgeStyle=orthogonalEdgeStyle;html=1;align=left;verticalAlign=bottom;endArrow=open;endSize=8;strokeColor=#ff0000;" edge="1" source="RoHcZFiQe7JwGtEL-E4e-9" parent="1">
          <mxGeometry x="-1" relative="1" as="geometry">
            <mxPoint x="450" y="450" as="targetPoint"/>
          </mxGeometry>
        </mxCell>
        <mxCell id="RoHcZFiQe7JwGtEL-E4e-11" value="no" style="edgeStyle=orthogonalEdgeStyle;html=1;align=left;verticalAlign=top;endArrow=open;endSize=8;strokeColor=#ff0000;" edge="1" source="RoHcZFiQe7JwGtEL-E4e-9" parent="1">
          <mxGeometry x="-1" relative="1" as="geometry">
            <mxPoint x="310" y="530" as="targetPoint"/>
          </mxGeometry>
        </mxCell>
        <mxCell id="RoHcZFiQe7JwGtEL-E4e-12" value="add new member" style="rounded=1;whiteSpace=wrap;html=1;arcSize=40;fontColor=#000000;fillColor=#ffffc0;strokeColor=#ff0000;" vertex="1" parent="1">
          <mxGeometry x="250" y="530" width="120" height="40" as="geometry"/>
        </mxCell>
        <mxCell id="RoHcZFiQe7JwGtEL-E4e-13" value="" style="edgeStyle=orthogonalEdgeStyle;html=1;verticalAlign=bottom;endArrow=open;endSize=8;strokeColor=#ff0000;" edge="1" source="RoHcZFiQe7JwGtEL-E4e-12" parent="1">
          <mxGeometry relative="1" as="geometry">
            <mxPoint x="310" y="630" as="targetPoint"/>
          </mxGeometry>
        </mxCell>
        <mxCell id="RoHcZFiQe7JwGtEL-E4e-14" value="" style="ellipse;html=1;shape=endState;fillColor=#000000;strokeColor=#ff0000;" vertex="1" parent="1">
          <mxGeometry x="295" y="630" width="30" height="30" as="geometry"/>
        </mxCell>
        <mxCell id="RoHcZFiQe7JwGtEL-E4e-15" value="msg &quot;member already exists&quot;" style="rounded=1;whiteSpace=wrap;html=1;arcSize=40;fontColor=#000000;fillColor=#ffffc0;strokeColor=#ff0000;" vertex="1" parent="1">
          <mxGeometry x="450" y="430" width="120" height="40" as="geometry"/>
        </mxCell>
        <mxCell id="RoHcZFiQe7JwGtEL-E4e-16" value="" style="edgeStyle=orthogonalEdgeStyle;html=1;verticalAlign=bottom;endArrow=open;endSize=8;strokeColor=#ff0000;entryX=1;entryY=0.5;entryDx=0;entryDy=0;exitX=0.5;exitY=1;exitDx=0;exitDy=0;" edge="1" source="RoHcZFiQe7JwGtEL-E4e-15" parent="1" target="RoHcZFiQe7JwGtEL-E4e-14">
          <mxGeometry relative="1" as="geometry">
            <mxPoint x="510" y="530" as="targetPoint"/>
          </mxGeometry>
        </mxCell>
      </root>
    </mxGraphModel>
  </diagram>
</mxfile>
